<?xml version="1.0" ?><svg viewBox="0 0 32 32" xmlns="http://www.w3.org/2000/svg"><g data-name="38. Medal" id="_38._Medal"><path d="M28,12A12,12,0,1,0,9,21.73V31a1,1,0,0,0,.42.81,1,1,0,0,0,.9.14L16,30.05,21.68,32A1.19,1.19,0,0,0,22,32a.94.94,0,0,0,.58-.19A1,1,0,0,0,23,31V21.73A12,12,0,0,0,28,12ZM21,29.61l-4.68-1.56a1,1,0,0,0-.64,0L11,29.61V22.89a11.82,11.82,0,0,0,10,0ZM16,22A10,10,0,1,1,26,12,10,10,0,0,1,16,22Z"/><path d="M15.5,8H19a1,1,0,0,0,0-2H17V5a1,1,0,0,0-2,0v1a3.49,3.49,0,0,0,.5,7h1a1.5,1.5,0,0,1,0,3H13a1,1,0,0,0,0,2h2v1a1,1,0,0,0,2,0V18A3.49,3.49,0,0,0,16.5,11h-1a1.5,1.5,0,0,1,0-3Z"/></g></svg>