<?xml version="1.0" standalone="no"?>
<!DOCTYPE svg PUBLIC "-//W3C//DTD SVG 20010904//EN"
 "http://www.w3.org/TR/2001/REC-SVG-20010904/DTD/svg10.dtd">
<svg version="1.0" xmlns="http://www.w3.org/2000/svg"
 width="512.000000pt" height="512.000000pt" viewBox="0 0 512.000000 512.000000"
 preserveAspectRatio="xMidYMid meet">

<g transform="translate(0.000000,512.000000) scale(0.100000,-0.100000)"
fill="#000000" stroke="none">
<path d="M2255 4924 c-385 -52 -764 -200 -1067 -417 -258 -185 -484 -424 -653
-692 -127 -202 -254 -512 -304 -745 -69 -324 -69 -696 0 -1020 50 -233 177
-543 304 -745 264 -418 656 -754 1097 -939 307 -129 593 -186 928 -186 281 0
487 33 754 121 638 210 1180 711 1440 1332 193 460 239 970 130 1452 -73 323
-220 639 -426 914 -86 115 -284 320 -393 408 -347 281 -766 460 -1208 518
-145 19 -462 18 -602 -1z m565 -285 c848 -104 1560 -733 1771 -1566 83 -327
83 -699 0 -1026 -192 -755 -795 -1349 -1552 -1527 -228 -53 -543 -68 -764 -36
-938 139 -1647 846 -1790 1786 -22 141 -22 439 0 580 70 464 272 867 595 1190
457 458 1095 677 1740 599z"/>
<path d="M3200 3672 c-21 -11 -43 -35 -57 -61 -19 -37 -21 -52 -16 -136 l6
-95 -79 45 c-334 191 -733 175 -1061 -42 -76 -49 -209 -182 -260 -258 -95
-141 -153 -298 -169 -456 -5 -52 -3 -74 11 -103 35 -74 112 -102 188 -68 56
25 73 55 92 166 29 166 88 281 204 397 204 203 500 264 766 156 44 -18 79 -37
78 -42 -2 -6 -36 -12 -76 -15 -54 -4 -81 -12 -105 -29 -91 -64 -80 -195 21
-245 37 -18 46 -18 300 -1 144 9 278 21 297 26 20 5 49 22 65 39 39 41 42 96
20 400 -18 257 -23 276 -85 317 -40 28 -93 30 -140 5z"/>
<path d="M3352 2621 c-47 -22 -81 -80 -82 -137 0 -58 -39 -184 -82 -267 -31
-60 -64 -103 -123 -162 -91 -91 -175 -144 -290 -182 -69 -23 -98 -27 -205 -27
-140 -1 -209 14 -319 66 -76 36 -68 46 34 47 111 2 185 62 185 152 0 47 -35
99 -83 123 -37 18 -46 18 -300 1 -144 -9 -278 -21 -297 -26 -43 -10 -87 -54
-99 -97 -11 -36 22 -553 37 -593 12 -31 64 -77 98 -85 35 -9 89 2 118 23 46
34 56 64 56 166 l0 95 108 -54 c183 -93 382 -129 572 -104 458 59 815 411 872
861 10 85 10 98 -7 132 -35 75 -116 103 -193 68z"/>
</g>
</svg>
